# File created by Blade
# Date/Time:  Thu Jan 22 16:16:06 2015
# Frame Rate: 120.000 fps
#------------------------------------------------------
:FULLY-SPECIFIED
:DEGREES
343
root 1.564860 34.527224 -5.558273 16.218065 -21.443606 7.489959
RightUpLeg -28.389740 -6.164259 -26.148818
RightLeg -5.114412 -0.000000 0.000000
RightFoot 5.224796 -18.065983 25.394086
RightToeBase 14.208596 -0.000000 -0.000000
LeftUpLeg -11.861572 20.708878 9.986958
LeftLeg -4.112622 -0.000000 0.000000
LeftFoot -2.045128 18.232578 -34.951641
LeftToeBase 11.604651 -0.000000 -0.000000
Spine 47.789148 -18.596808 4.467192
RightShoulder 10.008046 -5.942022 -29.538077
RightArm 44.531384 19.109754 41.539035
RightForeArm -7.138346 -0.000000 28.832724
RightHand 12.803985 0.000000 -18.906209
RightHandThumb1 -24.326973 -0.000000 -32.862282
LeftShoulder 1.597657 14.919352 41.237617
LeftArm 82.092723 -9.540541 -35.799619
LeftForeArm 48.777189 0.000000 18.657535
LeftHand -14.581670 -0.000000 16.461205
LeftHandThumb1 -26.253704 0.000000 33.147579
Head 2.877661 -1.894525 15.879046
344
root 1.555287 34.523190 -5.587927 16.647663 -21.739372 7.499970
RightUpLeg -28.994337 -6.095427 -26.163237
RightLeg -5.102783 -0.000000 0.000000
RightFoot 5.303057 -18.145984 25.426457
RightToeBase 14.318546 -0.000000 -0.000000
LeftUpLeg -12.218411 20.882529 9.831817
LeftLeg -4.192412 -0.000000 0.000000
LeftFoot -2.077583 18.453319 -35.131028
LeftToeBase 11.620977 -0.000000 -0.000000
Spine 48.584190 -18.737929 4.305391
RightShoulder 10.163801 -5.645850 -29.611940
RightArm 45.196031 19.053479 41.487078
RightForeArm -7.403917 0.000000 28.859177
RightHand 12.806598 -0.000000 -19.206617
RightHandThumb1 -24.326973 -0.000000 -32.862282
LeftShoulder 1.899674 14.498264 41.551675
LeftArm 82.451783 -10.133451 -35.358495
LeftForeArm 48.995150 -0.000000 18.604370
LeftHand -14.379786 -0.000000 16.428921
LeftHandThumb1 -26.253704 0.000000 33.147579
Head 2.484844 -1.644503 16.043811
345
root 1.544676 34.516622 -5.617492 17.075327 -22.077756 7.479745
RightUpLeg -29.640271 -6.022238 -26.136724
RightLeg -5.042441 -0.000000 0.000000
RightFoot 5.380566 -18.158001 25.478572
RightToeBase 14.447515 -0.000000 -0.000000
LeftUpLeg -12.574360 21.197897 9.684576
LeftLeg -4.240819 -0.000000 0.000000
LeftFoot -2.046717 18.559862 -35.192836
LeftToeBase 11.766053 -0.000000 -0.000000
Spine 49.395589 -18.781860 4.115283
RightShoulder 10.328747 -6.160327 -29.561055
RightArm 46.403815 19.610073 41.190791
RightForeArm -7.455369 -0.000000 28.764890
RightHand 12.906899 -0.000000 -19.251820
RightHandThumb1 -24.326973 -0.000000 -32.862282
LeftShoulder 2.230897 14.117345 41.997463
LeftArm 82.801907 -10.746287 -35.027622
LeftForeArm 49.114427 -0.000000 18.514497
LeftHand -14.238056 0.000000 16.574198
LeftHandThumb1 -26.253704 0.000000 33.147579
Head 2.127226 -1.486875 16.324779
346
root 1.532254 34.508779 -5.644315 17.511017 -22.453158 7.462562
RightUpLeg -30.332341 -5.923423 -26.120477
RightLeg -4.934620 -0.000000 0.000000
RightFoot 5.438480 -18.156200 25.480615
RightToeBase 14.561649 -0.000000 -0.000000
LeftUpLeg -12.939354 21.629835 9.496392
LeftLeg -4.275939 -0.000000 0.000000
LeftFoot -2.014150 18.603886 -35.342179
LeftToeBase 11.835718 -0.000000 -0.000000
Spine 50.219086 -18.761657 3.929709
RightShoulder 10.461857 -5.999205 -29.578817
RightArm 47.098474 19.805403 41.194748
RightForeArm -7.599497 -0.000000 28.880514
RightHand 12.800225 -0.000000 -19.212882
RightHandThumb1 -24.326973 -0.000000 -32.862282
LeftShoulder 2.485374 13.796229 42.410815
LeftArm 83.216288 -11.400203 -34.634980
LeftForeArm 49.322455 -0.000000 18.380021
LeftHand -14.088006 -0.000000 16.749571
LeftHandThumb1 -26.253704 0.000000 33.147579
Head 1.690852 -1.337390 16.557173
347
root 1.516500 34.502191 -5.676530 18.015646 -22.860629 7.424667
RightUpLeg -31.147295 -5.820040 -26.079988
RightLeg -4.738467 -0.000000 0.000000
RightFoot 5.504330 -18.120952 25.419956
RightToeBase 14.611337 -0.000000 -0.000000
LeftUpLeg -13.369893 22.075949 9.288192
LeftLeg -4.312877 -0.000000 0.000000
LeftFoot -2.023709 18.741339 -35.492064
LeftToeBase 11.890479 -0.000000 -0.000000
Spine 50.955754 -18.677575 3.775705
RightShoulder 10.599115 -5.706001 -29.603715
RightArm 47.670048 19.919755 41.248791
RightForeArm -7.829164 0.000000 28.995107
RightHand 12.764718 -0.000000 -19.089915
RightHandThumb1 -24.326973 -0.000000 -32.862282
LeftShoulder 2.762612 13.353554 42.775854
LeftArm 83.513192 -11.973415 -34.157197
LeftForeArm 49.343782 -0.000000 18.241153
LeftHand -13.922349 -0.000000 16.839068
LeftHandThumb1 -26.253704 0.000000 33.147579
Head 1.323871 -1.210690 16.810791
348
root 1.510407 34.495613 -5.702182 18.548962 -23.180473 7.428608
RightUpLeg -31.966619 -5.954621 -25.987431
RightLeg -4.518902 -0.000000 0.000000
RightFoot 5.553345 -17.947675 25.440109
RightToeBase 14.697917 -0.000000 -0.000000
LeftUpLeg -13.890414 22.490954 9.002129
LeftLeg -4.335973 -0.000000 0.000000
LeftFoot -1.975280 18.780513 -35.494044
LeftToeBase 11.932685 -0.000000 -0.000000
Spine 51.676382 -18.770294 3.613403
RightShoulder 10.680599 -5.344637 -29.723717
RightArm 48.319497 19.958236 41.344224
RightForeArm -8.099842 -0.000000 29.057075
RightHand 12.821904 -0.000000 -19.281485
RightHandThumb1 -24.326973 -0.000000 -32.862282
LeftShoulder 2.891549 13.115063 43.071613
LeftArm 83.916145 -12.642228 -33.791756
LeftForeArm 49.616696 -0.000000 18.157990
LeftHand -13.906514 -0.000000 16.814630
LeftHandThumb1 -26.253704 0.000000 33.147579
Head 0.866948 -1.093642 16.874240
349
root 1.493555 34.487714 -5.736291 19.193309 -23.579254 7.353602
RightUpLeg -32.894558 -5.879855 -25.914877
RightLeg -4.320803 -0.000000 0.000000
RightFoot 5.565714 -17.947080 25.404598
RightToeBase 14.765712 -0.000000 -0.000000
LeftUpLeg -14.508217 23.058893 8.733380
LeftLeg -4.304344 -0.000000 0.000000
LeftFoot -1.935570 18.749214 -35.460654
LeftToeBase 12.027252 -0.000000 -0.000000
Spine 52.230919 -18.711717 3.536923
RightShoulder 10.794396 -5.318138 -29.787560
RightArm 49.099589 20.196117 41.308007
RightForeArm -8.315095 -0.000000 29.126783
RightHand 12.724220 0.000000 -19.313756
RightHandThumb1 -24.326973 -0.000000 -32.862282
LeftShoulder 3.109296 12.810316 43.365449
LeftArm 84.253514 -13.237709 -33.416938
LeftForeArm 49.791136 0.000000 17.976349
LeftHand -13.721358 -0.000000 16.860265
LeftHandThumb1 -26.253704 0.000000 33.147579
Head 0.622034 -0.845817 17.005220
350
root 1.474312 34.482581 -5.772055 19.842076 -23.990358 7.273595
RightUpLeg -33.821226 -5.747326 -25.872191
RightLeg -4.133289 -0.000000 0.000000
RightFoot 5.601007 -18.013877 25.353294
RightToeBase 14.731955 -0.000000 -0.000000
LeftUpLeg -15.113336 23.660714 8.454137
LeftLeg -4.312077 -0.000000 0.000000
LeftFoot -1.822037 18.688303 -35.455653
LeftToeBase 12.025031 -0.000000 -0.000000
Spine 52.777510 -18.579672 3.494334
RightShoulder 10.850609 -5.142137 -29.817295
RightArm 49.734059 20.338209 41.272230
RightForeArm -8.326188 -0.000000 29.232681
RightHand 12.685065 -0.000000 -19.355196
RightHandThumb1 -24.326973 -0.000000 -32.862282
LeftShoulder 3.316529 12.463899 43.701515
LeftArm 84.612767 -13.799017 -33.131800
LeftForeArm 49.965588 -0.000000 17.782897
LeftHand -13.461289 -0.000000 16.889365
LeftHandThumb1 -26.253704 0.000000 33.147579
Head 0.343606 -0.733870 17.078258
351
root 1.462393 34.479160 -5.795656 20.498879 -24.302051 7.247479
RightUpLeg -34.666022 -5.763172 -25.850726
RightLeg -4.024154 -0.000000 0.000000
RightFoot 5.654617 -18.040444 25.446610
RightToeBase 14.719439 -0.000000 -0.000000
LeftUpLeg -15.722345 23.987072 8.165883
LeftLeg -4.364960 -0.000000 0.000000
LeftFoot -1.784254 18.781052 -35.452339
LeftToeBase 12.042488 -0.000000 -0.000000
Spine 53.230338 -18.594247 3.477036
RightShoulder 10.923093 -5.206562 -29.874789
RightArm 50.550776 20.650195 41.234423
RightForeArm -8.391813 -0.000000 29.254137
RightHand 12.616687 0.000000 -19.316390
RightHandThumb1 -24.326973 -0.000000 -32.862282
LeftShoulder 3.582235 12.035326 44.026235
LeftArm 84.824236 -14.240416 -32.911686
LeftForeArm 50.391371 -0.000000 17.650002
LeftHand -13.407908 -0.000000 16.819413
LeftHandThumb1 -26.253704 0.000000 33.147579
Head 0.182609 -0.542842 17.128788
352
root 1.456766 34.480030 -5.806460 21.094014 -24.407998 7.276163
RightUpLeg -35.300076 -5.950379 -25.839890
RightLeg -3.996739 -0.000000 0.000000
RightFoot 5.674413 -18.060259 25.510373
RightToeBase 14.757917 -0.000000 -0.000000
LeftUpLeg -16.287433 23.967234 7.923482
LeftLeg -4.472082 -0.000000 0.000000
LeftFoot -1.812373 19.005061 -35.534014
LeftToeBase 12.088577 -0.000000 -0.000000
Spine 53.713079 -18.857555 3.546341
RightShoulder 11.001345 -4.921608 -29.997793
RightArm 51.004530 20.735647 41.115035
RightForeArm -8.348068 0.000000 29.362864
RightHand 12.536937 0.000000 -19.388814
RightHandThumb1 -24.326973 -0.000000 -32.862282
LeftShoulder 3.813947 11.474491 44.249143
LeftArm 84.958059 -14.591768 -32.640739
LeftForeArm 50.529441 0.000000 17.562589
LeftHand -13.366924 -0.000000 16.530663
LeftHandThumb1 -26.253704 0.000000 33.147579
Head -0.033631 -0.349619 16.998924
353
root 1.448052 34.479905 -5.820267 21.725607 -24.551124 7.279516
RightUpLeg -35.993556 -6.063361 -25.842069
RightLeg -3.942119 -0.000000 0.000000
RightFoot 5.628720 -18.108648 25.614953
RightToeBase 14.897204 -0.000000 -0.000000
LeftUpLeg -16.871532 24.039697 7.689081
LeftLeg -4.579966 -0.000000 0.000000
LeftFoot -1.795128 19.139348 -35.638055
LeftToeBase 12.156287 -0.000000 -0.000000
Spine 54.143796 -19.032464 3.666129
RightShoulder 11.056764 -4.724240 -30.116878
RightArm 51.460500 20.886897 40.975145
RightForeArm -8.232147 -0.000000 29.472067
RightHand 12.472401 -0.000000 -19.463688
RightHandThumb1 -24.326973 -0.000000 -32.862282
LeftShoulder 4.019298 10.927547 44.483998
LeftArm 85.172362 -14.929114 -32.389437
LeftForeArm 50.680925 -0.000000 17.371969
LeftHand -12.996167 -0.000000 16.332564
LeftHandThumb1 -26.253704 0.000000 33.147579
Head -0.272811 -0.163215 16.910440
354
root 1.434220 34.480859 -5.833305 22.357701 -24.653704 7.280573
RightUpLeg -36.656028 -6.129505 -25.886538
RightLeg -3.874577 -0.000000 0.000000
RightFoot 5.568916 -18.245552 25.647254
RightToeBase 14.949115 -0.000000 -0.000000
LeftUpLeg -17.459842 24.155216 7.442658
LeftLeg -4.720810 -0.000000 0.000000
LeftFoot -1.657309 19.243586 -35.715860
LeftToeBase 12.020686 -0.000000 -0.000000
Spine 54.552335 -19.213005 3.829137
RightShoulder 11.109475 -4.424681 -30.247352
RightArm 51.788839 20.980231 40.874929
RightForeArm -8.174035 0.000000 29.582364
RightHand 12.478568 -0.000000 -19.535024
RightHandThumb1 -24.326973 -0.000000 -32.862282
LeftShoulder 4.222716 10.389948 44.741110
LeftArm 85.371248 -15.248420 -32.159290
LeftForeArm 50.823230 0.000000 17.214698
LeftHand -12.860912 -0.000000 16.032548
LeftHandThumb1 -26.253704 0.000000 33.147579
Head -0.516320 0.010786 16.832111
355
root 1.418679 34.480367 -5.847341 22.981578 -24.870429 7.271810
RightUpLeg -37.392487 -6.043105 -26.002600
RightLeg -3.752075 -0.000000 0.000000
RightFoot 5.438660 -18.431170 25.762640
RightToeBase 14.984715 -0.000000 -0.000000
LeftUpLeg -17.984702 24.355416 7.190945
LeftLeg -4.886062 -0.000000 0.000000
LeftFoot -1.576160 19.348885 -35.885018
LeftToeBase 12.031482 -0.000000 -0.000000
Spine 54.971845 -19.228995 3.953778
RightShoulder 11.090113 -4.268739 -30.420491
RightArm 52.388621 21.285168 41.189795
RightForeArm -8.308413 -0.000000 29.582432
RightHand 12.569071 -0.000000 -19.495053
RightHandThumb1 -24.326973 -0.000000 -32.862282
LeftShoulder 4.375156 9.848259 45.000170
LeftArm 85.637112 -15.541931 -31.863752
LeftForeArm 51.036099 -0.000000 16.966440
LeftHand -12.787252 -0.000000 15.791779
LeftHandThumb1 -26.253704 0.000000 33.147579
Head -0.808464 0.143409 16.828743
